<svg id="Capa_1" enable-background="new 0 0 512.013 512.013" height="512" viewBox="0 0 512.013 512.013" width="512" xmlns="http://www.w3.org/2000/svg"><g><g><path d="m228.816 512.013c-4.168 0-7.989-2.703-9.402-6.615-1.417-3.921-.175-8.475 3.063-11.113 3.337-2.719 8.131-2.988 11.753-.671 3.395 2.173 5.168 6.314 4.407 10.274-.894 4.65-5.076 8.125-9.821 8.125z"/><g><path d="m384.265 339.305h-17.279c-5.523 0-10-4.478-10-10s4.477-10 10-10h17.279c5.522 0 10 4.478 10 10s-4.477 10-10 10z"/></g><path d="m440.772 161.555-45.378-134.44c-3.402-10.081-10.527-18.233-20.063-22.956-9.535-4.723-20.338-5.45-30.418-2.046l-258.03 87.094c-20.811 7.025-32.026 29.67-25.002 50.482l2.332 6.908h-21.781c-5.522 0-10 4.477-10 10v345.416c0 5.522 4.478 10 10 10h141c5.522 0 10-4.477 10-10s-4.478-10-10-10h-131v-25.118h339.378c23.519 0 42.652-19.134 42.652-42.652v-43.363h25.118v43.363c0 37.369-30.401 67.771-67.77 67.771h-117.966c-5.523 0-10 4.478-10 10s4.477 10 10 10h117.967c48.396 0 87.77-39.374 87.77-87.77v-189.876c0-30.282-15.415-57.03-38.809-72.813zm-359.941-28.263c-3.497-10.362 2.087-21.638 12.449-25.136l258.03-87.094c5.02-1.694 10.398-1.331 15.146 1.019 4.747 2.351 8.295 6.411 9.989 11.431l39.289 116.398c-7.608-2.158-15.633-3.313-23.923-3.313h-2.525l-16.61-49.21c-.848-2.513-2.66-4.586-5.036-5.763-2.378-1.178-5.124-1.362-7.637-.514-20.042 6.766-25.613 2.752-35.069-25.261-1.766-5.233-7.439-8.045-12.673-6.276l-164.581 55.552c-5.232 1.766-8.043 7.439-6.276 12.673 2.102 6.227 4.165 12.948 5.003 18.799h-61.086zm82.523-2.349 146.027-49.29c6.883 17.507 16.602 32.136 37.056 32.133 3.163 0 6.589-.35 10.295-1.095l10.773 31.918c-1.33.639-2.592 1.301-3.79 1.987h-197.183c-.496-5.104-1.677-10.38-3.178-15.653zm-85.493 35.654c.183.005.366.005.55 0h313.399c37.369 0 67.771 30.402 67.771 67.771v43.362h-25.118v-43.363c0-23.519-19.134-42.652-42.652-42.652h-339.379v-25.118zm336.601 257.645c0 12.49-10.162 22.652-22.652 22.652h-339.378v-235.18h339.378c12.49 0 22.652 10.162 22.652 22.652v43.363h-47.196c-28.439 0-51.574 23.136-51.574 51.574s23.136 51.574 51.574 51.574h47.196zm-47.196-63.363c-17.41 0-31.574-14.164-31.574-31.574s14.164-31.574 31.574-31.574h92.314v63.148z"/></g></g></svg>